<?xml version="1.0" encoding="utf-8"?>
<!-- Generator: Adobe Illustrator 18.1.1, SVG Export Plug-In . SVG Version: 6.00 Build 0)  -->
<svg version="1.0" id="Layer_1" xmlns="http://www.w3.org/2000/svg" xmlns:xlink="http://www.w3.org/1999/xlink" x="0px" y="0px"
	 viewBox="0 0 234.3 50" enable-background="new 0 0 234.3 50" xml:space="preserve">
<g>
	<path fill="#FFFFFF" d="M31.2,46l8-42h6.9l8,42h-4.7l-1.6-8.5H37.2L35.6,46H31.2z M37.9,33.5h9.1L42.4,9.5L37.9,33.5z"/>
	<path fill="#FFFFFF" d="M69.7,46V4h9.4c3.3,0,5.6,0.8,7,2.3c1.4,1.5,2.1,3.9,2.1,7v2c0,2.2-0.4,4.1-1.1,5.4c-0.7,1.4-2,2.3-3.9,2.9
		c2.1,0.6,3.5,1.6,4.4,3.2c0.9,1.6,1.3,3.5,1.3,5.8v3.5c0,3.2-0.8,5.6-2.3,7.3c-1.6,1.7-4,2.5-7.2,2.5H69.7z M74.4,21.8H78
		c1.9,0,3.2-0.4,4.2-1.1s1.4-2.2,1.4-4.5v-2.5c0-1.9-0.3-3.3-1-4.2c-0.7-0.9-1.9-1.3-3.5-1.3h-4.6V21.8z M74.4,41.8h5
		c3.3,0,5-1.9,5-5.7v-3.7c0-2.4-0.5-4-1.4-4.9c-0.9-0.9-2.4-1.3-4.5-1.3h-4.1V41.8z"/>
	<path fill="#FFFFFF" d="M104.9,35.9V14.2c0-3.2,0.8-5.8,2.4-7.7s4-2.9,7.2-2.9c3.2,0,5.7,1,7.3,2.9c1.6,1.9,2.4,4.5,2.4,7.7v21.7
		c0,3.2-0.8,5.8-2.4,7.7c-1.6,1.9-4,2.9-7.3,2.9c-3.2,0-5.6-1-7.2-2.9S104.9,39.1,104.9,35.9z M109.4,36.1c0,1.9,0.4,3.4,1.2,4.5
		c0.8,1.1,2.1,1.6,3.8,1.6c1.7,0,3-0.5,3.8-1.6s1.2-2.6,1.2-4.5V13.9c0-1.9-0.4-3.4-1.2-4.5c-0.8-1.1-2.1-1.6-3.8-1.6
		c-1.7,0-2.9,0.5-3.8,1.6c-0.8,1.1-1.2,2.6-1.2,4.5V36.1z"/>
	<path fill="#FFFFFF" d="M140.4,35.9V4h4.6v32.1c0,1.9,0.4,3.4,1.2,4.5c0.8,1.1,2,1.6,3.8,1.6c1.7,0,2.9-0.5,3.7-1.6
		c0.8-1.1,1.2-2.6,1.2-4.5V4h4.4v31.9c0,3.2-0.8,5.8-2.3,7.7s-3.9,2.9-7.2,2.9c-3.2,0-5.6-1-7.1-2.9S140.4,39.1,140.4,35.9z"/>
	<path fill="#FFFFFF" d="M174.1,8.3V4h20.2v4.3h-7.7V46h-4.7V8.3H174.1z"/>
</g>
</svg>
