<?xml version="1.0" encoding="utf-8"?>
<!-- Generator: Adobe Illustrator 18.1.1, SVG Export Plug-In . SVG Version: 6.00 Build 0)  -->
<svg version="1.0" id="Layer_1" xmlns="http://www.w3.org/2000/svg" xmlns:xlink="http://www.w3.org/1999/xlink" x="0px" y="0px"
	 viewBox="0 0 234.3 50" enable-background="new 0 0 234.3 50" xml:space="preserve">
<g>
	<path fill="#FFFFFF" d="M2.1,35.9V14.2c0-1.6,0.2-3.1,0.6-4.4c0.4-1.3,1-2.4,1.7-3.3c0.8-0.9,1.7-1.6,2.9-2.1s2.6-0.7,4.2-0.7
		c3.2,0,5.6,1,7.1,2.9c1.5,1.9,2.3,4.5,2.3,7.7v3.8h-4.4v-4c0-1.9-0.4-3.4-1.2-4.5c-0.8-1.1-2-1.6-3.8-1.6c-1.7,0-2.9,0.5-3.7,1.6
		C7,10.5,6.6,12,6.6,13.9v22.2c0,1.9,0.4,3.4,1.2,4.5c0.8,1.1,2,1.6,3.7,1.6c1.7,0,3-0.5,3.8-1.6c0.8-1.1,1.2-2.6,1.2-4.5v-5.4h4.4
		v5.2c0,3.2-0.8,5.8-2.3,7.7c-1.5,1.9-3.9,2.9-7.1,2.9c-3.2,0-5.6-1-7.1-2.9C2.8,41.6,2.1,39.1,2.1,35.9z"/>
	<path fill="#FFFFFF" d="M36.8,35.9V14.2c0-3.2,0.8-5.8,2.4-7.7s4-2.9,7.2-2.9c3.2,0,5.7,1,7.3,2.9c1.6,1.9,2.4,4.5,2.4,7.7v21.7
		c0,3.2-0.8,5.8-2.4,7.7c-1.6,1.9-4,2.9-7.3,2.9c-3.2,0-5.6-1-7.2-2.9S36.8,39.1,36.8,35.9z M41.4,36.1c0,1.9,0.4,3.4,1.2,4.5
		c0.8,1.1,2.1,1.6,3.8,1.6c1.7,0,3-0.5,3.8-1.6c0.8-1.1,1.2-2.6,1.2-4.5V13.9c0-1.9-0.4-3.4-1.2-4.5c-0.8-1.1-2.1-1.6-3.8-1.6
		c-1.7,0-2.9,0.5-3.8,1.6c-0.8,1.1-1.2,2.6-1.2,4.5V36.1z"/>
	<path fill="#FFFFFF" d="M72.5,46V4h5.9l9.7,30.4V4h4.2v42h-4.9L76.6,12.1V46H72.5z"/>
	<path fill="#FFFFFF" d="M107.4,8.3V4h20.2v4.3h-7.7V46h-4.7V8.3H107.4z"/>
	<path fill="#FFFFFF" d="M139.3,46l8-42h6.9l8,42h-4.7l-1.6-8.5h-10.6l-1.6,8.5H139.3z M146,33.5h9.1l-4.6-24.1L146,33.5z"/>
	<path fill="#FFFFFF" d="M177.5,35.9V14.2c0-1.6,0.2-3.1,0.6-4.4c0.4-1.3,1-2.4,1.7-3.3c0.8-0.9,1.7-1.6,2.9-2.1s2.6-0.7,4.2-0.7
		c3.2,0,5.6,1,7.1,2.9c1.5,1.9,2.3,4.5,2.3,7.7v3.8h-4.4v-4c0-1.9-0.4-3.4-1.2-4.5c-0.8-1.1-2-1.6-3.8-1.6c-1.7,0-2.9,0.5-3.7,1.6
		c-0.8,1.1-1.2,2.6-1.2,4.5v22.2c0,1.9,0.4,3.4,1.2,4.5c0.8,1.1,2,1.6,3.7,1.6c1.7,0,3-0.5,3.8-1.6c0.8-1.1,1.2-2.6,1.2-4.5v-5.4
		h4.4v5.2c0,3.2-0.8,5.8-2.3,7.7c-1.5,1.9-3.9,2.9-7.1,2.9c-3.2,0-5.6-1-7.1-2.9C178.2,41.6,177.5,39.1,177.5,35.9z"/>
	<path fill="#FFFFFF" d="M211,8.3V4h20.2v4.3h-7.7V46h-4.7V8.3H211z"/>
</g>
</svg>
