<?xml version="1.0" encoding="utf-8"?>
<!-- Generator: Adobe Illustrator 18.1.1, SVG Export Plug-In . SVG Version: 6.00 Build 0)  -->
<svg version="1.0" id="Layer_1" xmlns="http://www.w3.org/2000/svg" xmlns:xlink="http://www.w3.org/1999/xlink" x="0px" y="0px"
	 viewBox="0 0 234.3 50" enable-background="new 0 0 234.3 50" xml:space="preserve">
<g>
	<path fill="#FFFFFF" d="M23.4,36V15.7h8.4v2.1h-6.1v6.9h5v2h-5v7.2h6.1V36H23.4z"/>
	<path fill="#FFFFFF" d="M39.1,15.7h2.3l3.3,17.7L48,15.7h2.1L46.3,36h-3.4L39.1,15.7z"/>
	<path fill="#FFFFFF" d="M57.6,36V15.7H66v2.1h-6.1v6.9h5v2h-5v7.2H66V36H57.6z"/>
	<path fill="#FFFFFF" d="M73.8,36V15.7h2.9l4.7,14.7V15.7h2V36H81l-5.2-16.4V36H73.8z"/>
	<path fill="#FFFFFF" d="M90.7,17.8v-2.1h9.7v2.1h-3.7V36h-2.3V17.8H90.7z"/>
	<path fill="#FFFFFF" d="M107.5,31.1V30h2.1v1.3c0,0.9,0.2,1.6,0.6,2.1s1,0.8,1.8,0.8s1.4-0.3,1.8-0.8s0.6-1.2,0.6-2.1
		c0-0.8-0.2-1.4-0.5-2s-0.8-1.1-1.3-1.5s-1-0.9-1.6-1.4c-0.6-0.5-1.1-1-1.6-1.5c-0.5-0.5-0.9-1.2-1.3-1.8c-0.3-0.7-0.5-1.5-0.5-2.5
		c0-1.6,0.4-2.8,1.1-3.7c0.7-0.9,1.9-1.4,3.4-1.4c1.5,0,2.7,0.5,3.4,1.4c0.7,0.9,1.1,2.1,1.1,3.7v0.6h-2.1v-0.7
		c0-0.9-0.2-1.6-0.6-2.1c-0.4-0.5-1-0.8-1.8-0.8s-1.4,0.3-1.8,0.8c-0.4,0.5-0.6,1.2-0.6,2.1c0,0.8,0.2,1.4,0.5,2
		c0.3,0.6,0.8,1.1,1.3,1.6s1,0.9,1.6,1.4c0.6,0.5,1.1,1,1.6,1.5c0.5,0.5,0.9,1.2,1.3,1.8c0.3,0.7,0.5,1.5,0.5,2.4
		c0,1.5-0.4,2.8-1.1,3.7c-0.7,0.9-1.9,1.4-3.5,1.4s-2.7-0.5-3.5-1.4C107.9,33.9,107.5,32.7,107.5,31.1z"/>
	<path fill="#FFFFFF" d="M124.1,26.7V25h4v-4h1.6v4h4v1.6h-4v4.1h-1.6v-4.1H124.1z"/>
	<path fill="#FFFFFF" d="M141.5,36V15.7h8.1v2.1h-5.8v7.4h4.7v2.1h-4.7V36H141.5z"/>
	<path fill="#FFFFFF" d="M156.2,36l3.9-20.3h3.3l3.9,20.3h-2.3l-0.8-4.1h-5.1l-0.8,4.1H156.2z M159.5,30h4.4l-2.2-11.6L159.5,30z"/>
	<path fill="#FFFFFF" d="M174.8,36V15.7h2.3V36H174.8z"/>
	<path fill="#FFFFFF" d="M185.2,36V15.7h4.5c1.6,0,2.8,0.4,3.5,1.2s1.1,1.9,1.1,3.5V22c0,1.1-0.2,2-0.6,2.7c-0.4,0.7-1,1.2-1.9,1.5
		c0.9,0.3,1.6,0.8,2,1.5c0.4,0.7,0.6,1.6,0.6,2.7v3.2c0,0.4,0,0.9,0.1,1.3c0,0.4,0.2,0.8,0.4,1.1h-2.3c-0.1-0.3-0.2-0.6-0.3-0.9
		s-0.1-0.8-0.1-1.5v-3.2c0-1.1-0.3-1.9-0.8-2.4s-1.2-0.7-2.2-0.7h-1.6V36H185.2z M187.5,25.3h1.7c0.9,0,1.6-0.2,2.1-0.6
		s0.8-1.1,0.8-2.2v-2c0-0.9-0.2-1.6-0.5-2.1c-0.4-0.5-1-0.7-1.8-0.7h-2.2V25.3z"/>
	<path fill="#FFFFFF" d="M202.1,31.1V30h2.1v1.3c0,0.9,0.2,1.6,0.6,2.1s1,0.8,1.8,0.8c0.8,0,1.4-0.3,1.8-0.8s0.6-1.2,0.6-2.1
		c0-0.8-0.2-1.4-0.5-2s-0.8-1.1-1.3-1.5s-1-0.9-1.6-1.4c-0.6-0.5-1.1-1-1.6-1.5c-0.5-0.5-0.9-1.2-1.3-1.8c-0.3-0.7-0.5-1.5-0.5-2.5
		c0-1.6,0.4-2.8,1.1-3.7s1.9-1.4,3.4-1.4c1.5,0,2.7,0.5,3.4,1.4c0.7,0.9,1.1,2.1,1.1,3.7v0.6h-2.1v-0.7c0-0.9-0.2-1.6-0.6-2.1
		c-0.4-0.5-1-0.8-1.8-0.8c-0.8,0-1.4,0.3-1.8,0.8c-0.4,0.5-0.6,1.2-0.6,2.1c0,0.8,0.2,1.4,0.5,2c0.3,0.6,0.8,1.1,1.3,1.6
		s1,0.9,1.6,1.4s1.1,1,1.6,1.5c0.5,0.5,0.9,1.2,1.3,1.8c0.3,0.7,0.5,1.5,0.5,2.4c0,1.5-0.4,2.8-1.1,3.7c-0.7,0.9-1.9,1.4-3.5,1.4
		c-1.6,0-2.7-0.5-3.5-1.4C202.5,33.9,202.1,32.7,202.1,31.1z"/>
</g>
</svg>
