<?xml version="1.0" encoding="utf-8"?>
<!-- Generator: Adobe Illustrator 18.1.1, SVG Export Plug-In . SVG Version: 6.00 Build 0)  -->
<svg version="1.0" id="Layer_1" xmlns="http://www.w3.org/2000/svg" xmlns:xlink="http://www.w3.org/1999/xlink" x="0px" y="0px"
	 viewBox="0 0 402.6 87.6" enable-background="new 0 0 402.6 87.6" xml:space="preserve">
<g>
	<path fill="#FFFFFF" d="M17.8,4.3c12.8,0,20,9.4,20,19.2s-7.2,19.2-20,19.2H3.7V4.3H17.8z M12.6,12v23.1h4.8
		c7.2,0,11.4-5.6,11.4-11.5c0-5.9-4.2-11.5-11.4-11.5H12.6z"/>
	<path fill="#FFFFFF" d="M53.7,4.3h16.2c8.5,0,14,6.4,14,13.9c0,5.4-2.9,10.2-7.6,12.4L84,42.8H73.6l-6.8-10.7h-4.2v10.7h-8.9V4.3z
		 M74.9,18.2c0-3.6-2.4-6.7-6.2-6.7h-6.1v13.3h6.1C72.5,24.9,74.9,21.8,74.9,18.2z"/>
	<path fill="#FFFFFF" d="M109.1,11.4v8.7h14.6v7h-14.6v8.5h14.6v7.1h-23.5V4.3h23.5v7.1H109.1z"/>
	<path fill="#FFFFFF" d="M163.8,42.8l-1.5-4.7h-13.7l-1.5,4.7h-9.5l13.7-38.5h8.2l13.9,38.5H163.8z M155.5,15.3l-4.7,15.8h9.3
		L155.5,15.3z"/>
	<path fill="#FFFFFF" d="M228.7,42.8H220V18.9l-8.3,23.9h-6.6l-8.6-23.9v23.9h-8.7V4.3h10.3l10.3,26.8l10.2-26.8h10.1V42.8z"/>
	<path fill="#FFFFFF" d="M254.5,6.6h-10.8V4.3h24v2.3H257v36.2h-2.4V6.6z"/>
	<path fill="#FFFFFF" d="M286.4,6.6v16h17.9v2.3h-17.9v15.7h17.9v2.3H284V4.3h20.3v2.3H286.4z"/>
	<path fill="#FFFFFF" d="M345.7,42.8l-2.7-7.9h-18l-2.7,7.9h-2.5L333,4.3h2l13.2,38.5H345.7z M334,7.9l-8.2,24.7h16.4L334,7.9z"/>
	<path fill="#FFFFFF" d="M398.8,42.8h-2.4V9.9l-14,32.9h-2.1L366.4,9.9v32.9H364V4.3h2.4l15,35l15-35h2.4V42.8z"/>
</g>
<g>
	<path fill="#FFFFFF" d="M48.7,77.4v6.4h-2.4V69.2h2.4v6.5l5.5-6.5h3L51,76.5l6.2,7.3h-3L48.7,77.4z"/>
	<path fill="#FFFFFF" d="M71,83.9L70.3,82h-5.5l-0.6,1.9h-2.5l5.1-14.7h1.7l5.1,14.7H71z M67.6,73.2l-2,6.7h4.1L67.6,73.2z"/>
	<path fill="#FFFFFF" d="M80.5,71.3h-3.6v-2.2h9.7v2.2h-3.7v12.5h-2.4V71.3z"/>
	<path fill="#FFFFFF" d="M99.2,83.9L98.5,82H93l-0.6,1.9h-2.5l5.1-14.7h1.7l5.1,14.7H99.2z M95.8,73.2l-2,6.7h4.1L95.8,73.2z"/>
	<path fill="#FFFFFF" d="M107.4,69.2h5.3c3.1,0,5.2,2.4,5.2,5.1c0,2.1-1.2,4-3.1,4.8l2.9,4.8h-2.8l-2.7-4.4h-2.4v4.4h-2.4V69.2z
		 M115.5,74.3c0-1.6-1.1-3-2.8-3h-2.9v6h2.9C114.4,77.3,115.5,75.9,115.5,74.3z"/>
	<path fill="#FFFFFF" d="M123.5,69.2h11.2L127,81.7h7.6v2.2H123l7.6-12.5h-7.2V69.2z"/>
	<path fill="#FFFFFF" d="M144.4,83.9h-2.6l2.9-5.9l-5.5-8.8h2.8l3.9,6.3l3.1-6.3h2.6L144.4,83.9z"/>
	<path fill="#FFFFFF" d="M165.9,79.6V69.2h2.4v14.7h-2.6l-5.8-10.5v10.5h-2.4V69.2h2.6L165.9,79.6z"/>
	<path fill="#FFFFFF" d="M183.3,83.9l-0.6-1.9h-5.5l-0.6,1.9H174l5.1-14.7h1.7l5.1,14.7H183.3z M180,73.2l-2,6.7h4.1L180,73.2z"/>
	<path fill="#FFFFFF" d="M203.3,77.4v6.4h-2.4V69.2h2.4v6.5l5.5-6.5h3l-6.2,7.3l6.2,7.3h-3L203.3,77.4z"/>
	<path fill="#FFFFFF" d="M215.7,76.5c0-4,2.9-7.7,7.6-7.7c4.7,0,7.6,3.7,7.6,7.7s-2.9,7.7-7.6,7.7C218.5,84.2,215.7,80.5,215.7,76.5
		z M228.3,76.5c0-2.9-1.9-5.5-5.1-5.5c-3.1,0-5.1,2.7-5.1,5.5s1.9,5.5,5.1,5.5C226.4,82.1,228.3,79.4,228.3,76.5z"/>
	<path fill="#FFFFFF" d="M245.8,79.6V69.2h2.4v14.7h-2.6l-5.8-10.5v10.5h-2.4V69.2h2.6L245.8,79.6z"/>
	<path fill="#FFFFFF" d="M257.7,77.4v6.4h-2.4V69.2h2.4v6.5l5.5-6.5h3l-6.2,7.3l6.2,7.3h-3L257.7,77.4z"/>
	<path fill="#FFFFFF" d="M270.1,76.5c0-4,2.9-7.7,7.6-7.7c4.7,0,7.6,3.7,7.6,7.7s-2.9,7.7-7.6,7.7C273,84.2,270.1,80.5,270.1,76.5z
		 M282.7,76.5c0-2.9-1.9-5.5-5.1-5.5c-3.1,0-5.1,2.7-5.1,5.5s1.9,5.5,5.1,5.5C280.8,82.1,282.7,79.4,282.7,76.5z"/>
	<path fill="#FFFFFF" d="M299.7,73.4l-3.4,10.5h-1.7l-5.1-14.7h2.5l3.4,10.5l3.4-10.5h1.8l3.4,10.5l3.4-10.5h2.5l-5.1,14.7H303
		L299.7,73.4z"/>
	<path fill="#FFFFFF" d="M317.4,79.1c0,1.9,1.2,3,2.9,3c1.3,0,2.4-0.9,2.4-2.2c0-1.5-1.3-2-2.3-2.3c-2.7-0.9-4.8-1.8-4.8-4.7
		c0-2.4,2.1-4,4.6-4c2.6,0,4.7,1.9,4.7,4.6h-2.4c0-1.4-0.8-2.4-2.2-2.4c-1.2,0-2.2,0.6-2.2,1.9c0,1.2,1,1.8,2.1,2.2
		c2.3,0.8,5,1.8,5,4.6c0,3-2.3,4.6-5,4.6c-2.7,0-5.1-1.9-5.1-5.2H317.4z"/>
	<path fill="#FFFFFF" d="M334.1,77.4v6.4h-2.4V69.2h2.4v6.5l5.5-6.5h3l-6.2,7.3l6.2,7.3h-3L334.1,77.4z"/>
	<path fill="#FFFFFF" d="M356.3,83.9l-0.6-1.9h-5.5l-0.6,1.9H347l5.1-14.7h1.7l5.1,14.7H356.3z M353,73.2l-2,6.7h4.1L353,73.2z"/>
</g>
</svg>
