<?xml version="1.0" encoding="utf-8"?>
<!-- Generator: Adobe Illustrator 18.1.1, SVG Export Plug-In . SVG Version: 6.00 Build 0)  -->
<svg version="1.0" id="Layer_1" xmlns="http://www.w3.org/2000/svg" xmlns:xlink="http://www.w3.org/1999/xlink" x="0px" y="0px"
	 viewBox="0 0 234.3 50" enable-background="new 0 0 234.3 50" xml:space="preserve">
<g>
	<path fill="#FFFFFF" d="M1.1,31.1V30h2.1v1.3c0,0.9,0.2,1.6,0.6,2.1s1,0.8,1.8,0.8s1.4-0.3,1.8-0.8s0.6-1.2,0.6-2.1
		c0-0.8-0.2-1.4-0.5-2s-0.8-1.1-1.3-1.5s-1-0.9-1.6-1.4c-0.6-0.5-1.1-1-1.6-1.5C2.4,24.3,2,23.7,1.7,23c-0.3-0.7-0.5-1.5-0.5-2.5
		c0-1.6,0.4-2.8,1.1-3.7c0.7-0.9,1.9-1.4,3.4-1.4c1.5,0,2.7,0.5,3.4,1.4c0.7,0.9,1.1,2.1,1.1,3.7v0.6H8v-0.7c0-0.9-0.2-1.6-0.6-2.1
		c-0.4-0.5-1-0.8-1.8-0.8s-1.4,0.3-1.8,0.8c-0.4,0.5-0.6,1.2-0.6,2.1c0,0.8,0.2,1.4,0.5,2c0.3,0.6,0.8,1.1,1.3,1.6s1,0.9,1.6,1.4
		c0.6,0.5,1.1,1,1.6,1.5c0.5,0.5,0.9,1.2,1.3,1.8c0.3,0.7,0.5,1.5,0.5,2.4c0,1.5-0.4,2.8-1.1,3.7c-0.7,0.9-1.9,1.4-3.5,1.4
		s-2.7-0.5-3.5-1.4C1.4,33.9,1.1,32.7,1.1,31.1z"/>
	<path fill="#FFFFFF" d="M17.2,17.8v-2.1h9.7v2.1h-3.7V36h-2.3V17.8H17.2z"/>
	<path fill="#FFFFFF" d="M32.6,36l3.9-20.3h3.3L43.7,36h-2.3l-0.8-4.1h-5.1L34.7,36H32.6z M35.9,30h4.4L38,18.3L35.9,30z"/>
	<path fill="#FFFFFF" d="M51,31.1V20.6c0-0.8,0.1-1.5,0.3-2.1s0.5-1.2,0.8-1.6c0.4-0.4,0.8-0.8,1.4-1c0.6-0.2,1.2-0.4,2-0.4
		c1.6,0,2.7,0.5,3.5,1.4c0.7,0.9,1.1,2.2,1.1,3.7v1.7H58v-1.9c0-0.9-0.2-1.6-0.6-2.2c-0.4-0.5-1-0.8-1.8-0.8c-0.8,0-1.4,0.3-1.8,0.8
		c-0.4,0.5-0.6,1.2-0.6,2.2v10.7c0,0.9,0.2,1.6,0.6,2.2c0.4,0.5,1,0.8,1.8,0.8c0.8,0,1.5-0.3,1.8-0.8s0.6-1.2,0.6-2.2v-4.1h-2.1v-2
		h4.2v6c0,1.5-0.4,2.8-1.1,3.7c-0.7,0.9-1.9,1.4-3.5,1.4c-1.5,0-2.7-0.5-3.4-1.4S51,32.6,51,31.1z"/>
	<path fill="#FFFFFF" d="M68.1,36V15.7h8.4v2.1h-6.1v6.9h5v2h-5v7.2h6.1V36H68.1z"/>
	<path fill="#FFFFFF" d="M94.6,36V15.7h4.8c1.6,0,2.7,0.5,3.5,1.4c0.7,0.9,1.1,2.1,1.1,3.7V31c0,1.6-0.4,2.8-1.1,3.7
		c-0.7,0.9-1.9,1.3-3.5,1.3H94.6z M96.9,33.9h2.5c0.8,0,1.4-0.2,1.8-0.7c0.4-0.5,0.6-1.2,0.6-2.1V20.6c0-0.9-0.2-1.6-0.6-2.1
		c-0.4-0.5-1-0.7-1.8-0.7h-2.4V33.9z"/>
	<path fill="#FFFFFF" d="M111.9,36V15.7h8.4v2.1h-6.1v6.9h5v2h-5v7.2h6.1V36H111.9z"/>
	<path fill="#FFFFFF" d="M127.8,31.1V30h2.1v1.3c0,0.9,0.2,1.6,0.6,2.1c0.4,0.5,1,0.8,1.8,0.8c0.8,0,1.4-0.3,1.8-0.8
		c0.4-0.5,0.6-1.2,0.6-2.1c0-0.8-0.2-1.4-0.5-2s-0.8-1.1-1.3-1.5c-0.5-0.5-1-0.9-1.6-1.4c-0.6-0.5-1.1-1-1.6-1.5
		c-0.5-0.5-0.9-1.2-1.3-1.8c-0.3-0.7-0.5-1.5-0.5-2.5c0-1.6,0.4-2.8,1.1-3.7s1.9-1.4,3.4-1.4c1.5,0,2.7,0.5,3.4,1.4
		c0.7,0.9,1.1,2.1,1.1,3.7v0.6h-2.1v-0.7c0-0.9-0.2-1.6-0.6-2.1c-0.4-0.5-1-0.8-1.8-0.8c-0.8,0-1.4,0.3-1.8,0.8
		c-0.4,0.5-0.6,1.2-0.6,2.1c0,0.8,0.2,1.4,0.5,2c0.3,0.6,0.8,1.1,1.3,1.6c0.5,0.5,1,0.9,1.6,1.4s1.1,1,1.6,1.5
		c0.5,0.5,0.9,1.2,1.3,1.8c0.3,0.7,0.5,1.5,0.5,2.4c0,1.5-0.4,2.8-1.1,3.7c-0.7,0.9-1.9,1.4-3.5,1.4c-1.6,0-2.7-0.5-3.5-1.4
		C128.2,33.9,127.8,32.7,127.8,31.1z"/>
	<path fill="#FFFFFF" d="M144.7,36V15.7h2.3V36H144.7z"/>
	<path fill="#FFFFFF" d="M154.9,31.1V20.6c0-0.8,0.1-1.5,0.3-2.1c0.2-0.6,0.5-1.2,0.8-1.6s0.8-0.8,1.4-1c0.6-0.2,1.2-0.4,2-0.4
		c1.6,0,2.7,0.5,3.5,1.4c0.7,0.9,1.1,2.2,1.1,3.7v1.7h-2.1v-1.9c0-0.9-0.2-1.6-0.6-2.2c-0.4-0.5-1-0.8-1.8-0.8
		c-0.8,0-1.4,0.3-1.8,0.8c-0.4,0.5-0.6,1.2-0.6,2.2v10.7c0,0.9,0.2,1.6,0.6,2.2s1,0.8,1.8,0.8c0.8,0,1.5-0.3,1.8-0.8
		s0.6-1.2,0.6-2.2v-4.1h-2.1v-2h4.2v6c0,1.5-0.4,2.8-1.1,3.7s-1.9,1.4-3.5,1.4c-1.5,0-2.7-0.5-3.4-1.4
		C155.3,33.9,154.9,32.6,154.9,31.1z"/>
	<path fill="#FFFFFF" d="M172,36V15.7h2.9l4.7,14.7V15.7h2V36h-2.4L174,19.6V36H172z"/>
	<path fill="#FFFFFF" d="M189.4,26.7V25h4v-4h1.6v4h4v1.6h-4v4.1h-1.6v-4.1H189.4z"/>
	<path fill="#FFFFFF" d="M206,17.8v-2.1h9.7v2.1H212V36h-2.3V17.8H206z"/>
	<path fill="#FFFFFF" d="M222.6,15.7h2.3l3.3,17.7l3.3-17.7h2.1L229.8,36h-3.4L222.6,15.7z"/>
</g>
</svg>
